<?xml version="1.0" encoding="utf-8"?>
<!-- Generator: Adobe Illustrator 26.5.0, SVG Export Plug-In . SVG Version: 6.00 Build 0)  -->
<svg version="1.1" id="Слой_1" xmlns="http://www.w3.org/2000/svg" xmlns:xlink="http://www.w3.org/1999/xlink" x="0px" y="0px"
	 viewBox="0 0 1000 1000" style="enable-background:new 0 0 1000 1000;" xml:space="preserve">
<style type="text/css">
	.st0{fill:#FFFFFF;}
</style>
<g>
	<path class="st0" d="M936.1,63.9C900.2,28,856.9,10,806.3,10H193.8C143.2,10,99.9,28,64,63.9c-36,35.9-54,79.2-54,129.8v612.5
		c0,50.6,18,93.9,53.9,129.8c36,36,79.2,54,129.9,54h612.5c50.6,0,93.9-18,129.8-53.9c35.9-36,53.9-79.2,53.9-129.8V193.7
		C990,143.1,972,99.8,936.1,63.9z M588.7,151.6h42.8v173.5c0,10.2,0.2,15.7,0.6,16.6c0.4,6.8,3.8,10.2,10.2,10.2
		c8.5,0,17.4-6.6,26.8-19.8V151.6h42.8v236.1h-42.8l0,0v-25.5c-17.4,19.1-33.8,28.7-49.1,28.7c-13.6,0-22.8-5.7-27.4-17.2
		c-2.6-7.7-3.8-19.4-3.8-35.1L588.7,151.6L588.7,151.6z M427.3,228.2c0-24.7,4.5-43.2,13.4-55.5c11.5-16.2,28.1-24.2,49.8-24.2
		c20.8,0,37.4,8.1,49.8,24.2c8.9,12.3,13.4,30.8,13.4,55.5v82.9c0,25.5-4.5,44-13.4,55.5c-12.3,16.2-28.9,24.3-49.8,24.3
		c-21.7,0-38.3-8.1-49.8-24.3c-8.9-12.3-13.4-30.8-13.4-55.5L427.3,228.2L427.3,228.2z M312.4,70.6L346.2,195l32.5-124.4h47.9
		l-57.4,188.9l0,0v128.2H322V259.5c-4.7-23.4-14.5-57-29.4-100.8c-9.8-29.4-14.7-44-14.7-44l-15.3-44L312.4,70.6L312.4,70.6z
		 M838.2,840.7c-4.3,18.3-13.3,33.8-27.1,46.6s-29.9,20.2-48.2,22.3c-58.3,6.4-145.9,9.6-262.9,9.6s-204.6-3.2-262.9-9.6
		c-18.3-2.1-34.3-9.6-48.2-22.3c-13.8-12.8-22.9-28.3-27.1-46.6c-8.5-35.7-12.8-91-12.8-165.9c0-73.6,4.3-128.9,12.8-165.9
		c4.3-18.7,13.3-34.3,27.1-46.9s30.1-19.9,48.8-22c57.8-6.4,145.3-9.6,262.2-9.6c117.4,0,205,3.2,262.9,9.6
		c18.3,2.1,34.4,9.5,48.5,22c14,12.5,23.2,28.2,27.4,46.9c8.1,35.3,12.1,90.6,12.1,165.9C850.9,749.7,846.7,805,838.2,840.7z"/>
	<path class="st0" d="M201.4,556.8h49.8v269.9h47.2V556.8h51v-44.7h-148V556.8z"/>
	<path class="st0" d="M434.9,771.2c-9.4,13.2-18.3,19.8-26.8,19.8c-6,0-9.1-3.2-9.6-9.6c-0.4-0.8-0.6-6.4-0.6-16.6V592.5h-42.1v185
		c0,16.2,1.3,27.7,3.8,34.5c3.8,11.9,12.8,17.9,26.8,17.9c15.7,0,31.9-9.6,48.5-28.7v25.5h42.7V592.5h-42.7L434.9,771.2L434.9,771.2
		z"/>
	<path class="st0" d="M600.2,589.3c-15.3,0-29.8,8.5-43.4,25.5V512.1H514v314.5h42.8v-23c14,17.4,28.5,26.2,43.4,26.2
		c17.4,0,28.7-8.9,33.8-26.8c3-8.9,4.5-24.5,4.5-46.6v-93.2c0-22.5-1.5-38.3-4.5-47.2C628.9,598.3,617.6,589.3,600.2,589.3z
		 M596.4,759.7c0,20.8-6.2,31.3-18.5,31.3c-7.2,0-14.2-3.4-21-10.2v-143c6.8-6.8,13.8-10.2,21-10.2c12.3,0,18.5,10.6,18.5,31.9
		V759.7z"/>
	<path class="st0" d="M755.2,759.3c0,4.5-0.1,8-0.3,10.5s-0.3,4-0.3,4.5c-2.5,11.1-8.9,16.6-19.1,16.6c-14.5,0-21.7-10.8-21.7-32.5
		v-41.5h84.9v-48.5c0-24.7-4.5-43-13.4-54.9c-11.5-16.2-28.1-24.2-49.8-24.2s-38.7,8.1-51,24.2c-8.5,11.5-12.8,29.8-12.8,54.9v82.3
		c0,25.1,4.5,43.4,13.4,54.9c12.3,16.2,29.6,24.2,51.7,24.2c22.5,0,39.6-8.5,51.1-25.5c5.1-7.7,8.3-16.2,9.6-25.5
		c0.8-6,1.3-15.1,1.3-27.4v-5.7l0,0h-43.4L755.2,759.3L755.2,759.3z M713.8,660.1c0-21.7,7-32.5,21.1-32.5c14,0,21,10.8,21,32.5
		v21.7h-42.1V660.1z"/>
	<path class="st0" d="M490.4,352c13.6,0,20.4-10.8,20.4-32.5V220c0-22.1-6.8-33.2-20.4-33.2S470,197.9,470,220v99.5
		C470,341.1,476.8,352,490.4,352z"/>
</g>
</svg>
